<svg width="106" height="50" viewBox="0 0 106 50" fill="none" xmlns="http://www.w3.org/2000/svg">
<g clip-path="url(#clip0_337_38)">
<path fill-rule="evenodd" clip-rule="evenodd" d="M83.8761 32.3594L83.5285 32.7188L84.2472 33.414L84.5949 33.0546L91.8498 25.5546C92.0373 25.3608 92.0373 25.0532 91.8498 24.8594L84.5949 17.3594L84.2472 17L83.5285 17.6953L83.8761 18.0546L90.7948 25.207L83.8761 32.3594ZM88.2852 24.707H8.28516V25.707H88.2852V24.707Z" fill="black"/>
</g>
<path d="M105.501 25C105.501 38.5143 94.1412 49.5 80.0903 49.5C66.0394 49.5 54.6797 38.5143 54.6797 25C54.6797 11.4857 66.0394 0.5 80.0903 0.5C94.1412 0.5 105.501 11.4857 105.501 25Z" stroke="#A19E9E"/>
<defs>
<clipPath id="clip0_337_38">
<rect width="28" height="99.4967" fill="white" transform="translate(0.285156 39) rotate(-90)"/>
</clipPath>
</defs>
</svg>
