<svg width="106" height="50" viewBox="0 0 106 50" fill="none" xmlns="http://www.w3.org/2000/svg">
<path d="M51.3212 25C51.3212 38.5143 39.9615 49.5 25.9106 49.5C11.8597 49.5 0.5 38.5143 0.5 25C0.5 11.4857 11.8597 0.5 25.9106 0.5C39.9615 0.5 51.3212 11.4857 51.3212 25Z" stroke="#A19E9E"/>
<g clip-path="url(#clip0_337_44)">
<path fill-rule="evenodd" clip-rule="evenodd" d="M22.1239 32.3594L22.4715 32.7188L21.7528 33.414L21.4051 33.0546L14.1502 25.5546C13.9627 25.3608 13.9627 25.0532 14.1502 24.8594L21.4051 17.3594L21.7528 17L22.4715 17.6953L22.1239 18.0546L15.2052 25.207L22.1239 32.3594ZM17.7148 24.707H97.7148V25.707H17.7148V24.707Z" fill="black"/>
</g>
<defs>
<clipPath id="clip0_337_44">
<rect width="28" height="99.4967" fill="white" transform="matrix(0 -1 -1 0 105.715 39)"/>
</clipPath>
</defs>
</svg>
