<svg width="40" height="40" viewBox="0 0 40 40" fill="none" xmlns="http://www.w3.org/2000/svg">
<circle cx="20" cy="20" r="19.5" stroke="#A19E9E"/>
<path d="M14.5 19.5H14V20.5H14.5V19.5ZM25 20.5H25.5V19.5H25V20.5ZM25.5 20L25.8536 20.3536C26.0488 20.1583 26.0488 19.8417 25.8536 19.6464L25.5 20ZM21.8536 15.6464L21.5 15.2929L20.7929 16L21.1464 16.3536L21.8536 15.6464ZM21.1464 23.6464L20.7929 24L21.5 24.7071L21.8536 24.3536L21.1464 23.6464ZM14.5 20.5H25V19.5H14.5V20.5ZM25.8536 19.6464L21.8536 15.6464L21.1464 16.3536L25.1464 20.3536L25.8536 19.6464ZM25.1464 19.6464L21.1464 23.6464L21.8536 24.3536L25.8536 20.3536L25.1464 19.6464Z" fill="black"/>
</svg>
