<svg width="40" height="40" viewBox="0 0 40 40" fill="none" xmlns="http://www.w3.org/2000/svg">
<circle r="19.5" transform="matrix(-1 0 0 1 20 20)" stroke="#A19E9E"/>
<path d="M25.5 19.5H26V20.5H25.5V19.5ZM15 20.5H14.5V19.5H15V20.5ZM14.5 20L14.1464 20.3536C13.9512 20.1583 13.9512 19.8417 14.1464 19.6464L14.5 20ZM18.1464 15.6464L18.5 15.2929L19.2071 16L18.8536 16.3536L18.1464 15.6464ZM18.8536 23.6464L19.2071 24L18.5 24.7071L18.1464 24.3536L18.8536 23.6464ZM25.5 20.5H15V19.5H25.5V20.5ZM14.1464 19.6464L18.1464 15.6464L18.8536 16.3536L14.8536 20.3536L14.1464 19.6464ZM14.8536 19.6464L18.8536 23.6464L18.1464 24.3536L14.1464 20.3536L14.8536 19.6464Z" fill="black"/>
</svg>
