<svg width="18" height="16" viewBox="0 0 18 16" fill="none" xmlns="http://www.w3.org/2000/svg">
<path d="M7.87928 1.40445C4.92653 3.29445 3.45053 5.5722 3.45053 8.2347C3.45053 9.06345 3.59528 9.47745 3.88328 9.47745L4.18028 9.3972C4.41428 9.3072 4.60253 9.2622 4.74728 9.2622C5.59253 9.2622 6.29978 9.5697 6.86603 10.1847C7.43303 10.7997 7.71653 11.5572 7.71653 12.4617C7.71653 13.3295 7.40903 14.0667 6.79778 14.672C6.18578 15.2772 5.44778 15.5795 4.58378 15.5795C3.37778 15.5795 2.38253 15.0845 1.59878 14.0922C0.816531 13.1022 0.425781 11.8572 0.425781 10.3595C0.425781 8.66445 0.757281 7.1142 1.42328 5.7072C2.09078 4.30095 3.10628 3.0297 4.47428 1.89345C5.84228 0.757953 6.71528 0.189453 7.09328 0.189453C7.34528 0.189453 7.55228 0.310953 7.71428 0.553953C7.87628 0.796203 7.95728 1.0077 7.95728 1.1877L7.87703 1.4037L7.87928 1.40445ZM17.5993 1.40445C14.6465 3.29445 13.1713 5.57145 13.1713 8.23545C13.1713 9.0642 13.316 9.4782 13.604 9.4782L13.901 9.39795C14.135 9.30795 14.3233 9.26295 14.468 9.26295C15.2953 9.26295 15.998 9.57045 16.5733 10.1855C17.1508 10.8005 17.4373 11.558 17.4373 12.4625C17.4373 13.3302 17.1298 14.0675 16.5185 14.6727C15.9065 15.278 15.1685 15.5802 14.3045 15.5802C13.0985 15.5802 12.1033 15.0852 11.3195 14.093C10.5373 13.103 10.1465 11.858 10.1465 10.3602C10.1465 8.6472 10.4825 7.0827 11.159 5.6682C11.834 4.25295 12.8503 2.98545 14.2093 1.86795C15.5705 0.749703 16.4383 0.190203 16.8155 0.190203C17.0683 0.190203 17.2753 0.311703 17.438 0.554703C17.5993 0.797703 17.6803 1.0092 17.6803 1.1892L17.5993 1.40445Z" fill="black"/>
</svg>
