<svg width="24" height="24" viewBox="0 0 24 24" fill="none" xmlns="http://www.w3.org/2000/svg">
<g clip-path="url(#clip0_324_791)">
<path d="M16.5458 0.75H7.45125C5.67639 0.750492 3.97418 1.45487 2.71793 2.70866C1.46169 3.96244 0.753972 5.66327 0.75 7.43812V16.5131C0.754071 18.2879 1.46183 19.9886 2.71806 21.2424C3.9743 22.4961 5.67646 23.2004 7.45125 23.2009H16.5458C18.3211 23.2012 20.0241 22.4971 21.281 21.2433C22.5379 19.9894 23.246 18.2881 23.25 16.5128V7.43775C23.2459 5.66244 22.5378 3.96125 21.2809 2.70746C20.024 1.45368 18.3211 0.749697 16.5458 0.75ZM20.985 16.5128C20.9844 17.0951 20.869 17.6716 20.6456 18.2093C20.4221 18.7471 20.095 19.2356 19.6828 19.6469C19.2705 20.0582 18.7813 20.3843 18.2431 20.6066C17.7048 20.8288 17.1281 20.9429 16.5458 20.9423H7.45125C6.86892 20.9429 6.29216 20.8288 5.75392 20.6066C5.21567 20.3843 4.72647 20.0582 4.31424 19.6469C3.90202 19.2356 3.57485 18.7471 3.35141 18.2093C3.12797 17.6716 3.01264 17.0951 3.012 16.5128V7.43775C3.01264 6.85542 3.12797 6.27892 3.35141 5.74116C3.57485 5.2034 3.90202 4.71492 4.31424 4.3036C4.72647 3.89228 5.21567 3.56619 5.75392 3.34393C6.29216 3.12167 6.86892 3.00761 7.45125 3.00825H16.5458C17.1281 3.00761 17.7049 3.12169 18.2432 3.34397C18.7814 3.56625 19.2707 3.89238 19.6829 4.30373C20.0951 4.71509 20.4223 5.20362 20.6457 5.74142C20.8691 6.27922 20.9844 6.85576 20.985 7.43812V16.5128Z" stroke="#202020" stroke-miterlimit="10" stroke-linecap="round" stroke-linejoin="round"/>
<path d="M12.0003 6.16844C10.8524 6.17066 9.73088 6.5131 8.77748 7.15247C7.82409 7.79185 7.08161 8.69948 6.64385 9.76067C6.2061 10.8219 6.09271 11.989 6.31803 13.1146C6.54334 14.2402 7.09724 15.2738 7.90974 16.0847C8.72224 16.8956 9.75688 17.4475 10.8829 17.6707C12.009 17.8938 13.1759 17.7782 14.2362 17.3384C15.2966 16.8986 16.2028 16.1543 16.8403 15.1997C17.4778 14.2451 17.8181 13.1229 17.8181 11.9749C17.8146 10.4341 17.2002 8.95749 16.1096 7.86899C15.019 6.78049 13.5412 6.16893 12.0003 6.16844V6.16844ZM12.0003 15.5247C11.299 15.5231 10.6138 15.3137 10.0314 14.9229C9.44898 14.5321 8.99546 13.9775 8.72814 13.3291C8.46082 12.6807 8.39168 11.9675 8.52947 11.2798C8.66725 10.5921 9.00577 9.96071 9.50226 9.46532C9.99875 8.96993 10.6309 8.6328 11.3189 8.49655C12.0069 8.36029 12.7199 8.43101 13.3677 8.69977C14.0156 8.96853 14.5692 9.42327 14.9587 10.0065C15.3482 10.5898 15.5561 11.2754 15.5561 11.9768C15.555 12.9188 15.1798 13.8218 14.5129 14.4871C13.8461 15.1525 12.9423 15.5257 12.0003 15.5247ZM19.224 6.21194C19.2245 6.4879 19.1433 6.75783 18.9904 6.98757C18.8375 7.21731 18.6199 7.39653 18.3651 7.50254C18.1103 7.60856 17.8298 7.6366 17.5591 7.58313C17.2884 7.52966 17.0396 7.39707 16.8442 7.20215C16.6489 7.00723 16.5158 6.75873 16.4617 6.48812C16.4077 6.21751 16.4351 5.93694 16.5406 5.68193C16.646 5.42693 16.8248 5.20894 17.0542 5.05556C17.2836 4.90218 17.5534 4.82031 17.8293 4.82031C18.0123 4.82007 18.1935 4.85587 18.3626 4.92568C18.5317 4.9955 18.6855 5.09795 18.815 5.22718C18.9445 5.35641 19.0473 5.5099 19.1174 5.67887C19.1876 5.84784 19.2238 6.02898 19.224 6.21194Z" stroke="#202020" stroke-miterlimit="10" stroke-linecap="round" stroke-linejoin="round"/>
</g>
<defs>
<clipPath id="clip0_324_791">
<rect width="24" height="24" fill="white"/>
</clipPath>
</defs>
</svg>
