<svg width="270" height="362" viewBox="0 0 270 362" fill="none" xmlns="http://www.w3.org/2000/svg">
<path fill-rule="evenodd" clip-rule="evenodd" d="M102.08 179.593C102.08 181.586 100.661 182.58 97.8105 182.58C96.1065 182.58 94.2709 182.578 92.3039 182.574C91.6164 199.553 91.2696 220.826 91.2696 246.401C133.07 212.519 160.1 190.822 172.356 181.31C171.541 180.898 170.783 180.345 170.083 179.651C168.365 177.95 167.505 175.91 167.505 173.53C167.505 171.143 168.365 169.103 170.083 167.402C171.798 165.702 173.858 164.851 176.266 164.851C178.673 164.851 180.729 165.702 182.446 167.402C184.166 169.103 185.024 171.143 185.024 173.53C185.024 175.91 184.166 177.95 182.446 179.651C182.266 179.829 182.081 179.999 181.893 180.159C180.81 181.153 178.908 182.748 176.187 184.945C170.495 189.751 150.812 205.597 117.147 232.466C168.063 315.571 193.52 357.536 193.52 358.368C193.52 360.19 192.345 361.105 189.999 361.105C188.997 361.105 187.662 359.612 185.985 356.625C184.811 354.799 183.721 352.894 182.719 350.901L112.624 235.703L91.2696 253.118V315.571C91.2696 326.686 91.6912 341.282 92.5266 359.361H64.3869C65.2262 342.279 65.6482 328.509 65.6482 318.061V218.781C65.6482 209.505 65.3048 197.393 64.6214 182.443C59.7894 182.412 54.6057 182.375 49.0702 182.333C27.4676 182.165 11.218 182.083 0.333984 182.083C1.17359 164.997 1.58988 151.23 1.58988 140.783V41.503C1.58988 31.0555 1.17359 17.285 0.333984 0.198914H28.474C27.6386 17.9461 27.134 37.6048 26.9644 59.1715C26.7976 74.2674 26.7976 93.8332 26.9644 117.89C27.134 149.076 27.2167 168.727 27.2167 176.856C35.0855 176.856 46.8526 176.774 62.5137 176.609C78.1718 176.441 89.9389 176.363 97.8105 176.363C100.661 176.363 102.08 177.438 102.08 179.593ZM160.916 128.839C160.916 136.631 157.399 143.016 150.369 147.997C144.162 152.31 136.966 154.464 128.756 154.464C124.066 154.464 119.549 153.635 115.192 151.981V168.896C115.192 176.363 121.392 180.094 133.783 180.094C138.133 180.094 142.075 179.097 145.592 177.106C151.287 173.623 154.637 171.715 155.64 171.383C157.318 171.879 158.152 172.88 158.152 174.37C158.152 177.353 154.55 180.008 147.347 182.334C141.483 184.324 136.632 185.317 132.776 185.317C122.06 185.317 112.891 181.712 105.268 174.495C97.6447 167.281 93.8379 158.366 93.8379 147.747C93.8379 136.135 98.071 126.559 106.524 119.009C114.979 111.463 125.157 107.686 137.049 107.686C143.409 107.686 148.982 109.637 153.754 113.535C158.526 117.437 160.916 122.532 160.916 128.839ZM155.385 128.839C155.385 123.861 153.506 119.967 149.735 117.144C145.965 114.325 141.483 112.914 136.296 112.914C122.227 112.914 115.192 116.808 115.192 124.608V143.52C115.192 147.501 119.549 149.491 128.256 149.491C134.956 149.491 140.984 147.747 146.344 144.267C152.373 140.287 155.385 135.141 155.385 128.839ZM258.114 345.602C265.819 338.141 269.668 329.012 269.668 318.236C269.668 307.288 265.861 298.081 258.237 290.617C250.621 283.153 241.281 279.419 230.227 279.419C219.343 279.419 210.006 283.195 202.215 290.738C194.426 298.288 190.532 307.453 190.532 318.236C190.532 328.848 194.467 337.934 202.342 345.477C210.213 353.026 219.509 356.799 230.227 356.799C241.112 356.799 250.412 353.069 258.114 345.602ZM254.093 294.347C260.626 300.821 263.888 308.775 263.888 318.236C263.888 327.358 260.626 335.236 254.093 341.871C247.561 348.507 239.605 351.822 230.227 351.822C218.002 351.822 211.885 348.174 211.885 340.878V297.33C211.885 288.877 218.002 284.643 230.227 284.643C239.605 284.643 247.561 287.876 254.093 294.347Z" fill="#231F20"/>
</svg>
